# xmcd CD database file
#
# Track frame offsets:
#	150
#	33424
#	71367
#	105048
#	131196
#	150797
#	185583
#	216526
#	239613
#	267556
#
# Disc length: 3782 seconds
#
# Revision: 0
# Processed by: cddbd v1.5.2PL0 Copyright (c) Steve Scherf et al.
# Submitted via: CDex 1.70beta2
#
DISCID=8b0ec40a
DTITLE=Karel Boehlee Trio - Midnght Blue
DYEAR=2007
DGENRE=Jazz
TTITLE0=The Masquerade Is Over
TTITLE1=When I Fall In Love
TTITLE2=Midnght Mood
TTITLE3=Claire De Lune
TTITLE4=Golden Earrings
TTITLE5='Round Midnight
TTITLE6=Star Eyes
TTITLE7=The Garden
TTITLE8=Blue In Green
TTITLE9=Look Behind The Mountain
EXTD=YEAR: 2007
EXTT0=
EXTT1=
EXTT2=
EXTT3=
EXTT4=
EXTT5=
EXTT6=
EXTT7=
EXTT8=
EXTT9=
PLAYORDER=
